<svg width="234" height="48" viewBox="0 0 234 48" fill="none" xmlns="http://www.w3.org/2000/svg">
<mask id="mask0_77_1673" style="mask-type:luminance" maskUnits="userSpaceOnUse" x="-216" y="-166" width="488" height="275">
<path d="M271.746 -165.588H-215.873V108.698H271.746V-165.588Z" fill="white"/>
</mask>
<g mask="url(#mask0_77_1673)">
<path d="M114.261 -1.85703H110.131C108.552 -1.85703 107.018 -1.4817 105.628 -0.770677C104.234 -1.4817 102.688 -1.85703 101.093 -1.85703H96.9631C94.2228 -1.85703 91.6424 -0.744242 89.6996 1.28045C87.7567 3.3025 86.685 5.988 86.685 8.84002V21.012L77.5878 4.59239L77.5371 4.49987L77.4913 4.41793L77.4431 4.33864L77.3872 4.24613C76.4602 2.74479 75.2742 1.44433 73.8596 0.387047C71.8634 -1.10372 69.7072 -1.85703 67.4494 -1.85703H47.0558C45.4812 -1.85703 43.9523 -1.48168 42.5681 -0.773307C41.1713 -1.48168 39.6272 -1.85703 38.0399 -1.85703H10.304C7.51291 -1.85703 4.90465 -0.725729 2.96434 1.3254C1.05449 3.35273 0.00561523 6.01708 0.00561523 8.83737V26.0948C0.00561523 32.7398 2.0729 38.1267 6.15163 42.1074C10.078 45.94 15.4723 47.8854 22.1847 47.8854H26.1821C31.4291 47.8854 35.8736 46.6907 39.4469 44.3303C39.5916 44.4968 39.7415 44.6607 39.8964 44.8166C41.824 46.7911 44.384 47.8827 47.1015 47.8827H51.2767C54.0196 47.8827 56.5974 46.77 58.5351 44.7506C60.4653 42.7444 61.532 40.0668 61.532 37.2095V27.123L69.1739 41.3567L69.2145 41.4307L69.2577 41.51L69.3034 41.5866L69.3516 41.6712C70.3193 43.31 71.617 44.7056 73.2018 45.8105C75.1675 47.1849 77.2958 47.8827 79.5231 47.8827H101.098C102.7 47.8827 104.224 47.518 105.608 46.8096C106.995 47.518 108.524 47.8827 110.136 47.8827H114.266C116.988 47.8827 119.467 46.8387 121.435 44.8642C123.455 42.8342 124.564 40.117 124.564 37.2095V29.5204L125.174 30.5011V37.2069C125.174 40.1487 126.301 42.8765 128.348 44.8933C130.299 46.8149 132.755 47.8325 135.449 47.8325H139.625C142.345 47.8325 144.813 46.799 146.766 44.8431C148.775 42.8289 149.88 40.117 149.88 37.2069V34.6112C153.885 42.4668 161.829 47.8325 170.954 47.8325C176.557 47.8325 181.885 45.7788 186.086 42.1893C186.571 43.1303 187.195 43.9972 187.95 44.7664C189.877 46.7409 192.437 47.8325 195.155 47.8325H199.33C202.073 47.8325 204.651 46.7197 206.588 44.7003C207.627 43.6219 208.417 42.3479 208.922 40.9549H212.056C218.629 40.9549 223.881 39.1152 227.668 35.4835C231.645 31.6693 233.659 26.3169 233.659 19.5688C233.659 12.8207 231.642 7.4682 227.668 3.65406C223.884 0.0249403 218.632 -1.81737 212.056 -1.81737H195.112C192.318 -1.81737 189.712 -0.664934 187.772 1.42584C187.086 2.16594 186.52 2.97474 186.073 3.84171C181.875 0.260175 176.552 -1.79095 170.957 -1.79095C167.005 -1.79095 163.112 -0.754803 159.658 1.17738C157.966 -0.691366 155.541 -1.81473 152.818 -1.81473H148.577C144.196 -1.81473 140.303 0.381766 137.89 4.20912V4.21441L137.865 4.24878L137.529 4.78798L137.199 4.25934C134.812 0.402912 130.903 -1.81473 126.482 -1.81473H122.263C120.895 -1.81473 119.574 -1.52926 118.375 -0.987405C117.098 -1.56362 115.711 -1.8623 114.271 -1.8623M114.261 1.98355C115.795 1.98355 117.237 2.51484 118.401 3.49018C119.386 2.57299 120.719 2.03113 122.253 2.03113H126.472C129.661 2.03113 132.369 3.56683 134.096 6.35805L137.524 11.8533L140.945 6.3554L140.95 6.34748L140.955 6.33954C142.698 3.56154 145.402 2.03113 148.569 2.03113H152.811C155.686 2.03113 157.862 3.93158 158.327 6.6858C161.781 3.7915 166.169 2.05491 170.949 2.05491C178.525 2.05491 185.121 6.40827 188.562 12.8392V8.88759C188.562 7.06907 189.202 5.41443 190.418 4.10076C191.658 2.76594 193.321 2.03113 195.104 2.03113H212.049C217.667 2.03113 222.078 3.52982 225.159 6.48492C228.346 9.54046 229.961 13.9467 229.961 19.5767C229.961 25.2067 228.346 29.6103 225.159 32.6658C222.075 35.6209 217.664 37.1196 212.049 37.1196H205.89V37.1646C205.89 38.9937 205.207 40.7117 203.97 41.9937C202.731 43.2862 201.08 43.9972 199.325 43.9972H195.15C193.408 43.9972 191.762 43.2968 190.528 42.0281C189.26 40.7355 188.564 39.0069 188.564 37.1646V33.213C185.123 39.6439 178.528 43.9972 170.952 43.9972C159.823 43.9972 150.802 34.6086 150.802 23.0261C150.802 22.6507 150.812 22.2781 150.83 21.9054L146.187 29.3751V37.2121C146.187 39.0703 145.484 40.8016 144.204 42.0836C142.954 43.3364 141.369 43.9999 139.622 43.9999H135.447C133.712 43.9999 132.135 43.347 130.881 42.1126C129.578 40.828 128.859 39.0888 128.859 37.2148V29.3777L120.872 16.5053V37.2174C120.872 39.073 120.161 40.8095 118.87 42.1074C117.606 43.3787 116.011 44.0501 114.263 44.0501H110.134C108.417 44.0501 106.853 43.4078 105.606 42.1972C104.356 43.4078 102.799 44.0501 101.095 44.0501H79.5205C78.0399 44.0501 76.6025 43.569 75.2513 42.6254C74.1085 41.8298 73.179 40.8307 72.4856 39.6597L72.4374 39.5752L72.3917 39.4906L61.9358 20.0181H57.8393V37.2148C57.8393 39.0439 57.1561 40.7593 55.9193 42.0439C54.6799 43.3364 53.0291 44.0501 51.2742 44.0501H47.0989C45.3567 44.0501 43.711 43.347 42.4767 42.0809C41.4659 41.0501 40.8259 39.7417 40.605 38.3196C40.3104 38.6633 40.0031 38.9963 39.6754 39.3161C36.445 42.4563 31.9066 44.0501 26.1821 44.0501H22.1847C16.4399 44.0501 11.8939 42.4563 8.67355 39.3108C5.36943 36.0861 3.69322 31.6403 3.69322 26.1001V8.84266C3.69322 7.03471 4.36371 5.32455 5.59037 4.0241C6.83482 2.71042 8.50593 1.9862 10.3015 1.9862H38.0374C39.744 1.9862 41.344 2.64964 42.5783 3.84965C43.7923 2.64964 45.3669 1.9862 47.0532 1.9862H67.4469C68.9173 1.9862 70.3472 2.49632 71.7034 3.50867C72.7396 4.28313 73.6056 5.2294 74.2812 6.32633L74.3396 6.41884L74.3929 6.514L85.1993 26.0155H90.3751V8.84002C90.3751 7.01356 91.0608 5.29284 92.3078 3.99767C93.5548 2.69986 95.2082 1.9862 96.9631 1.9862H101.093C102.807 1.9862 104.407 2.65227 105.628 3.85493C106.858 2.65227 108.445 1.9862 110.131 1.9862H114.261V1.98355Z" fill="white"/>
<path d="M94.8516 30.6746V8.83908C94.8516 8.23907 95.0573 7.72101 95.4738 7.29017C95.8878 6.85932 96.383 6.64258 96.9621 6.64258H101.094C101.701 6.64258 102.209 6.85932 102.615 7.29017C103.022 7.72101 103.227 8.23907 103.227 8.83908V37.2138C103.227 37.8139 103.017 38.3266 102.595 38.7495C102.171 39.1751 101.673 39.3866 101.097 39.3866H79.522C78.9455 39.3866 78.3513 39.1751 77.7443 38.7495C77.1373 38.3266 76.6573 37.8139 76.3017 37.2138L64.5659 15.3546H53.3633V37.2138C53.3633 37.8139 53.1601 38.3266 52.7512 38.7495C52.3449 39.1751 51.8522 39.3866 51.2757 39.3866H47.1005C46.5239 39.3866 46.0262 39.1751 45.6122 38.7495C45.1982 38.3266 44.99 37.8139 44.99 37.2138V8.83908C44.99 8.23907 45.1906 7.72101 45.5894 7.29017C45.9906 6.85932 46.4782 6.64258 47.0548 6.64258H67.4484C67.9665 6.64258 68.5151 6.85932 69.0916 7.29017C69.6681 7.72101 70.143 8.23907 70.5138 8.83908L82.6129 30.6746H94.8541H94.8516Z" fill="white"/>
<path d="M108.021 37.2634V8.84103C108.021 8.24102 108.227 7.72294 108.643 7.2921C109.057 6.86126 109.553 6.64453 110.132 6.64453H114.264C114.871 6.64453 115.379 6.86126 115.785 7.2921C116.191 7.72294 116.397 8.23838 116.397 8.84103V37.2158C116.397 37.8158 116.186 38.3286 115.765 38.7515C115.341 39.1771 114.843 39.3885 114.266 39.3885H110.134C109.558 39.3885 109.06 39.185 108.646 38.7753C108.232 38.3656 108.024 37.8634 108.024 37.2607" fill="white"/>
<path d="M121.101 7.80155C121.101 7.06146 121.484 6.69141 122.256 6.69141H126.474C128.148 6.69141 129.436 7.42357 130.337 8.88791L137.532 20.4202L144.704 8.88791C145.621 7.42357 146.909 6.69141 148.567 6.69141H152.808C153.563 6.69141 153.941 7.06146 153.941 7.80155C153.941 8.13988 153.822 8.502 153.586 8.88791L141.705 28.0009V37.2125C141.705 37.8125 141.502 38.3173 141.093 38.727C140.687 39.1341 140.194 39.3402 139.617 39.3402H135.442C134.866 39.3402 134.368 39.1367 133.954 38.727C133.54 38.3173 133.332 37.8125 133.332 37.2125V28.0009L121.474 8.88791C121.222 8.50464 121.095 8.13988 121.095 7.80155" fill="white"/>
<path d="M193.039 37.1675V8.88791C193.039 8.2879 193.239 7.76984 193.638 7.33899C194.037 6.90815 194.527 6.69141 195.104 6.69141H212.048C221.006 6.69141 225.483 10.9866 225.483 19.577C225.483 28.1674 221.006 32.4626 212.048 32.4626H201.412V37.1675C201.412 37.7675 201.209 38.2803 200.8 38.7032C200.394 39.1288 199.901 39.3402 199.325 39.3402H195.149C194.573 39.3402 194.075 39.1288 193.661 38.7032C193.247 38.2803 193.039 37.7675 193.039 37.1675Z" fill="white"/>
<path d="M33.9041 6.64453H38.0336C38.6406 6.64453 39.1511 6.86126 39.565 7.2921C39.979 7.72294 40.1873 8.24102 40.1873 8.84103V26.1011C40.1873 30.3223 38.9961 33.592 36.6114 35.9127C34.2266 38.2308 30.7498 39.3912 26.1733 39.3912H22.1758C17.5866 39.3912 14.1022 38.2308 11.7276 35.9127C9.35043 33.5946 8.16187 30.325 8.16187 26.1011V8.84103C8.16187 8.24102 8.36503 7.72559 8.77138 7.2921C9.18027 6.86126 9.68568 6.64453 10.2927 6.64453H33.899H33.9041Z" fill="white"/>
<path d="M167.731 17.2534C167.302 17.2534 166.888 17.3327 166.525 17.4728C165.382 17.9089 164.699 18.8684 164.699 20.0367C164.699 20.2402 164.722 20.4438 164.768 20.6605C165.108 22.2861 166.782 23.716 168.399 25.1011C168.613 25.2835 168.823 25.4632 169.034 25.6456C169.646 26.1769 170.352 26.8112 170.939 27.4853C170.954 27.5038 170.977 27.5091 170.992 27.5091C171.008 27.5091 171.03 27.5038 171.046 27.4853C171.632 26.8112 172.338 26.1769 172.95 25.6456C173.161 25.4632 173.372 25.2808 173.585 25.1011C175.203 23.7187 176.877 22.2861 177.217 20.6605C177.263 20.4438 177.286 20.2376 177.286 20.0367C177.286 18.8684 176.602 17.9089 175.46 17.4728C174.337 17.0446 172.737 17.1847 171.691 18.464C171.518 18.6781 171.262 18.7997 170.992 18.7997C170.723 18.7997 170.469 18.6781 170.294 18.464C169.588 17.597 168.628 17.2534 167.734 17.2534" fill="white"/>
<path d="M180.15 14.2649C181.077 13.842 181.712 12.8534 181.651 11.7195C181.58 10.4349 180.575 9.36441 179.343 9.26661C178.043 9.16353 176.93 10.0913 176.686 11.3495C175.117 10.4719 173.367 9.96176 171.574 9.86925V16.9293C172.349 16.3451 173.293 16.0332 174.256 16.0332C174.792 16.0332 175.335 16.1284 175.858 16.3292C177.451 16.9372 178.441 18.346 178.451 20.0112L182.594 19.0438C182.129 17.2861 181.288 15.6526 180.153 14.2623" fill="white"/>
<path d="M165.503 11.2333C165.228 10.0993 164.245 9.25879 163.072 9.25879C161.685 9.25879 160.56 10.4297 160.56 11.8729C160.56 12.872 161.101 13.7417 161.896 14.1804C160.725 15.5866 159.862 17.2518 159.385 19.0466L163.527 20.014C163.537 18.3488 164.527 16.9399 166.12 16.332C167.583 15.7743 169.195 16.0227 170.404 16.9294V9.86937C168.692 9.95659 167.019 10.4271 165.505 11.2333" fill="white"/>
<path d="M182.749 25.0255C182.927 24.1665 183.023 23.281 183.023 22.3797C183.023 21.6607 182.965 20.9391 182.845 20.2334L178.256 21.3065C177.695 23.1594 175.98 24.6238 174.322 26.0432C174.246 26.1066 174.17 26.1727 174.094 26.2388L178.027 32.5401C179.168 31.6837 180.138 30.6397 180.91 29.4687C181.365 29.9498 182 30.2485 182.698 30.2485C184.085 30.2485 185.207 29.0802 185.207 27.637C185.207 26.1938 184.11 25.0546 182.746 25.0282" fill="white"/>
<path d="M177.048 33.2021L173.19 27.0249C172.748 27.4214 172.294 27.8575 171.905 28.3042C171.672 28.5738 171.336 28.7271 170.986 28.7271C170.635 28.7271 170.3 28.5738 170.066 28.3042C169.678 27.8601 169.223 27.424 168.781 27.0249L164.924 33.2021C166.072 33.8999 167.319 34.3915 168.614 34.6611C168.525 34.9281 168.474 35.2162 168.474 35.5149C168.474 36.9581 169.599 38.1264 170.983 38.1264C172.367 38.1264 173.492 36.9554 173.492 35.5149C173.492 35.2162 173.442 34.9281 173.353 34.6611C174.648 34.3915 175.895 33.8999 177.043 33.2021" fill="white"/>
<path d="M167.654 26.0432C165.993 24.6238 164.282 23.1594 163.72 21.3065L159.131 20.2334C159.014 20.9418 158.953 21.6607 158.953 22.3797C158.953 23.281 159.05 24.1638 159.228 25.0229C159.217 25.0229 159.207 25.0229 159.197 25.0229C157.81 25.0229 156.685 26.1938 156.685 27.6344C156.685 29.0749 157.81 30.2458 159.197 30.2458C159.921 30.2458 160.571 29.926 161.031 29.4132C161.81 30.608 162.793 31.6679 163.949 32.5349L167.883 26.2335C167.807 26.1674 167.73 26.104 167.654 26.0379" fill="white"/>
</g>
</svg>
